<svg xmlns="http://www.w3.org/2000/svg" xmlns:xlink="http://www.w3.org/1999/xlink" width="529" zoomAndPan="magnify" viewBox="0 0 396.75 396.749985" height="529" preserveAspectRatio="xMidYMid meet" version="1.0"><defs><g/><clipPath id="864cd2432c"><path d="M 40 0 L 355 0 L 355 396.5 L 40 396.5 Z M 40 0 " clip-rule="nonzero"/></clipPath><clipPath id="9e91a8b430"><rect x="0" width="169" y="0" height="269"/></clipPath><clipPath id="9a4060e8fa"><path d="M 146 116 L 314.976562 116 L 314.976562 396.5 L 146 396.5 Z M 146 116 " clip-rule="nonzero"/></clipPath><clipPath id="f5a1301079"><rect x="0" width="169" y="0" height="281"/></clipPath><clipPath id="45fb35c46f"><rect x="0" width="166" y="0" height="269"/></clipPath><clipPath id="cd05768fb1"><path d="M 0.292969 116 L 171 116 L 171 396.5 L 0.292969 396.5 Z M 0.292969 116 " clip-rule="nonzero"/></clipPath><clipPath id="f5e8ebd13e"><rect x="0" width="171" y="0" height="281"/></clipPath><clipPath id="22bb000506"><path d="M 242.375 20.429688 L 285.164062 20.429688 L 285.164062 140.25 L 242.375 140.25 Z M 242.375 20.429688 " clip-rule="nonzero"/></clipPath><clipPath id="cb13c63ddb"><path d="M 0.375 0.429688 L 43.164062 0.429688 L 43.164062 120.25 L 0.375 120.25 Z M 0.375 0.429688 " clip-rule="nonzero"/></clipPath><clipPath id="7703948ec8"><rect x="0" width="44" y="0" height="121"/></clipPath><clipPath id="0f7bc66451"><path d="M 213.839844 20.4375 L 276.609375 20.4375 L 276.609375 63.222656 L 213.839844 63.222656 Z M 213.839844 20.4375 " clip-rule="nonzero"/></clipPath><clipPath id="90aa4af11e"><path d="M 0.839844 0.4375 L 63.609375 0.4375 L 63.609375 43.222656 L 0.839844 43.222656 Z M 0.839844 0.4375 " clip-rule="nonzero"/></clipPath><clipPath id="75d75e67e1"><rect x="0" width="64" y="0" height="44"/></clipPath><clipPath id="e5df82bf12"><rect x="0" width="315" y="0" height="397"/></clipPath></defs><g clip-path="url(#864cd2432c)"><g transform="matrix(1, 0, 0, 1, 40, 0)"><g clip-path="url(#e5df82bf12)"><g transform="matrix(1, 0, 0, 1, 1, 0)"><g clip-path="url(#9e91a8b430)"><g fill="#000000" fill-opacity="1"><g transform="translate(0.873977, 194.870819)"><g><path d="M 137.910156 0 L 137.910156 -174.546875 L 6.804688 -174.546875 L 6.804688 0 L 50.503906 0 L 50.503906 -48.675781 L 94.207031 -48.675781 L 94.207031 0 Z M 94.207031 -88.449219 L 50.503906 -88.449219 L 50.503906 -134.507812 L 94.207031 -134.507812 Z M 94.207031 -88.449219 "/></g></g></g></g></g><g clip-path="url(#9a4060e8fa)"><g transform="matrix(1, 0, 0, 1, 146, 116)"><g clip-path="url(#f5a1301079)"><g fill="#000000" fill-opacity="1"><g transform="translate(1.206642, 267.950498)"><g><path d="M 137.910156 0 L 137.910156 -174.546875 L 6.804688 -174.546875 L 6.804688 0 Z M 94.207031 -39.777344 L 50.503906 -39.777344 L 50.503906 -134.507812 L 94.207031 -134.507812 Z M 94.207031 -39.777344 "/></g></g></g></g></g></g><g transform="matrix(1, 0, 0, 1, 148, 0)"><g clip-path="url(#45fb35c46f)"><g fill="#000000" fill-opacity="1"><g transform="translate(0.26582, 194.870819)"><g><path d="M 137.386719 0 L 137.386719 -39.777344 L 50.503906 -39.777344 L 50.503906 -174.546875 L 6.804688 -174.546875 L 6.804688 0 Z M 137.386719 0 "/></g></g></g></g></g><g clip-path="url(#cd05768fb1)"><g transform="matrix(1, 0, 0, 1, -0.000000000000007105, 116)"><g clip-path="url(#f5e8ebd13e)"><g fill="#000000" fill-opacity="1"><g transform="translate(1.876102, 267.950498)"><g><path d="M 137.910156 0 L 137.910156 -174.546875 L 94.207031 -174.546875 L 94.207031 -107.03125 L 50.503906 -107.03125 L 50.503906 -174.546875 L 6.804688 -174.546875 L 6.804688 0 L 50.503906 0 L 50.503906 -68.5625 L 94.207031 -68.5625 L 94.207031 0 Z M 137.910156 0 "/></g></g></g></g></g></g><g clip-path="url(#22bb000506)"><g transform="matrix(1, 0, 0, 1, 242, 20)"><g clip-path="url(#7703948ec8)"><g clip-path="url(#cb13c63ddb)"><path fill="#000000" d="M 43.164062 120.25 L 0.375 120.25 L 0.375 0.414062 L 43.164062 0.414062 Z M 43.164062 120.25 " fill-opacity="1" fill-rule="nonzero"/></g></g></g></g><g clip-path="url(#0f7bc66451)"><g transform="matrix(1, 0, 0, 1, 213, 20)"><g clip-path="url(#75d75e67e1)"><g clip-path="url(#90aa4af11e)"><path fill="#000000" d="M 0.839844 43.222656 L 0.839844 0.4375 L 63.683594 0.4375 L 63.683594 43.222656 Z M 0.839844 43.222656 " fill-opacity="1" fill-rule="nonzero"/></g></g></g></g></g></g></g></svg>
